<svg xmlns="http://www.w3.org/2000/svg" xmlns:xlink="http://www.w3.org/1999/xlink" width="500" zoomAndPan="magnify" viewBox="0 0 375 374.999991" height="500" preserveAspectRatio="xMidYMid meet" version="1.0"><defs><clipPath id="76ac8cbce5"><path d="M 133.003906 145.9375 L 245.503906 145.9375 L 245.503906 258.4375 L 133.003906 258.4375 Z M 133.003906 145.9375 " clip-rule="nonzero"/></clipPath><clipPath id="597c82e062"><path d="M 191.667969 77.601562 C 199.902344 84.617188 208.664062 91.105469 216.28125 98.738281 C 259.71875 142.339844 267.503906 214.210938 234.382812 265.9375 C 229.816406 273.070312 226.949219 276.082031 221.570312 282.710938 C 215.910156 288.890625 207.636719 293.28125 200.417969 289.058594 C 202.503906 287.4375 204.6875 285.800781 206.8125 284.0625 C 229.816406 265.371094 241.304688 240.347656 245.023438 211.675781 C 249.398438 177.960938 241.886719 146.792969 222.070312 118.910156 C 213.941406 107.464844 203.929688 97.863281 192.699219 89.445312 C 190.203125 87.578125 188.671875 87.707031 186.265625 89.519531 C 155.359375 112.707031 137.296875 143.230469 133.628906 181.875 C 130.671875 213.015625 137.117188 241.863281 156.09375 267.1875 C 172.78125 289.445312 194.960938 301.46875 223.101562 300.59375 C 245.332031 299.898438 263.539062 289.820312 278.488281 273.882812 C 310.71875 239.535156 313.652344 190.308594 294.894531 148.996094 C 293.324219 145.546875 291.34375 145.558594 288.578125 146.71875 C 278.785156 150.824219 269.007812 154.957031 259.203125 159.089844 C 256.011719 151.671875 255.898438 152.046875 263.746094 148.597656 C 273.332031 144.386719 283.25 140.304688 293.003906 136.46875 C 296.515625 135.09375 298.40625 136.625 299.847656 139.46875 C 321.992188 183.265625 321.566406 236.226562 288.433594 275.582031 C 282.425781 282.710938 274.527344 288.261719 267.449219 294.492188 C 266.164062 295.625 264.644531 296.472656 263.410156 298.507812 C 268.09375 298.507812 272.828125 298.984375 277.433594 298.429688 C 298.378906 295.867188 316.675781 287.964844 331.628906 272.414062 C 345.289062 258.1875 351.867188 240.925781 355.402344 222.117188 C 356.292969 217.40625 356.355469 212.539062 356.949219 207.75 C 357.398438 204.132812 355.558594 202.214844 351.851562 201.90625 C 341.148438 201.003906 331.242188 200.761719 320.574219 200.734375 C 321.515625 194.027344 321.746094 192.84375 330.148438 193.140625 C 340.761719 193.511719 351.339844 193.859375 361.914062 194.914062 C 365.953125 195.316406 366.25 198.402344 366.210938 201.636719 C 365.96875 223.753906 361.167969 244.59375 349.898438 263.902344 C 337.429688 285.234375 318.554688 297.878906 295.640625 305.242188 C 279.324219 310.480469 262.753906 310.324219 246.09375 306.886719 C 244.085938 306.476562 242.015625 306.515625 240.007812 306.980469 C 223.757812 310.761719 207.75 310.300781 191.886719 304.957031 C 190.40625 304.457031 188.027344 304.457031 186.546875 304.945312 C 170.839844 310.132812 155.050781 310.480469 138.878906 307.121094 C 134.285156 306.167969 129.140625 307.6875 124.277344 308.316406 C 90.320312 312.644531 61.117188 302.152344 38.5625 277.074219 C 19.367188 255.730469 12.597656 228.851562 12.945312 200.335938 C 12.972656 198.496094 14.257812 195.46875 17.320312 195.097656 C 27.523438 193.859375 37.6875 193.925781 47.953125 193.742188 C 56.832031 193.589844 56.125 194.476562 57.695312 201.53125 C 47.167969 201.082031 41.355469 201.300781 29.039062 202.152344 C 21.875 202.640625 21.847656 202.792969 22.195312 210.132812 C 23.070312 228.875 28.074219 246.691406 38.664062 261.949219 C 51.789062 280.859375 70.007812 293.382812 93.359375 296.9375 C 101.617188 298.199219 104.410156 298.609375 113.765625 299.113281 C 114.933594 299.101562 119.066406 299.074219 119.105469 298.957031 C 116.902344 297.695312 114.304688 296.421875 112.207031 294.992188 C 84.945312 276.429688 69.878906 250.335938 65.15625 218.035156 C 61.246094 191.234375 66.6875 165.949219 77.96875 141.621094 C 80.261719 136.6875 83 134.824219 88.300781 137.011719 C 97.335938 140.742188 106.636719 143.871094 115.550781 147.863281 C 122.796875 151.105469 122.617188 151.507812 119.914062 159.140625 C 109.648438 153.992188 100.140625 150.773438 90.21875 146.652344 C 87.734375 145.625 85.675781 145.429688 84.261719 148.726562 C 68.835938 184.421875 67.058594 220.003906 86.488281 254.710938 C 100.449219 279.648438 121.277344 296.203125 150.292969 300.089844 C 158.925781 301.25 167.878906 299.960938 177.347656 299.78125 C 168.703125 291.980469 160.570312 285.816406 153.855469 278.359375 C 137.089844 259.773438 128.417969 237.191406 125.40625 212.667969 C 120.429688 172 130.863281 135.441406 157.703125 104.285156 C 165.085938 95.726562 174.503906 88.914062 182.996094 81.308594 C 184.414062 80.03125 185.890625 78.835938 187.347656 77.613281 C 188.75 76.609375 190.164062 76.480469 191.667969 77.601562 Z M 191.667969 77.601562 " clip-rule="nonzero"/></clipPath><linearGradient x1="268.094499" gradientTransform="matrix(1.286616, 0, 0, 1.287343, -211.92983, 30.303009)" y1="126.472" x2="355.533149" gradientUnits="userSpaceOnUse" y2="126.472" id="a836e95b11"><stop stop-opacity="1" stop-color="rgb(89.558411%, 32.208252%, 37.193298%)" offset="0"/><stop stop-opacity="1" stop-color="rgb(89.578247%, 32.266235%, 37.059021%)" offset="0.03125"/><stop stop-opacity="1" stop-color="rgb(89.61792%, 32.383728%, 36.793518%)" offset="0.0625"/><stop stop-opacity="1" stop-color="rgb(89.657593%, 32.501221%, 36.526489%)" offset="0.09375"/><stop stop-opacity="1" stop-color="rgb(89.697266%, 32.618713%, 36.25946%)" offset="0.125"/><stop stop-opacity="1" stop-color="rgb(89.736938%, 32.736206%, 35.992432%)" offset="0.15625"/><stop stop-opacity="1" stop-color="rgb(89.776611%, 32.853699%, 35.726929%)" offset="0.1875"/><stop stop-opacity="1" stop-color="rgb(89.816284%, 32.971191%, 35.4599%)" offset="0.21875"/><stop stop-opacity="1" stop-color="rgb(89.857483%, 33.088684%, 35.192871%)" offset="0.25"/><stop stop-opacity="1" stop-color="rgb(89.897156%, 33.206177%, 34.925842%)" offset="0.28125"/><stop stop-opacity="1" stop-color="rgb(89.936829%, 33.323669%, 34.658813%)" offset="0.3125"/><stop stop-opacity="1" stop-color="rgb(89.976501%, 33.441162%, 34.393311%)" offset="0.34375"/><stop stop-opacity="1" stop-color="rgb(90.016174%, 33.558655%, 34.126282%)" offset="0.375"/><stop stop-opacity="1" stop-color="rgb(90.055847%, 33.676147%, 33.859253%)" offset="0.40625"/><stop stop-opacity="1" stop-color="rgb(90.09552%, 33.79364%, 33.592224%)" offset="0.4375"/><stop stop-opacity="1" stop-color="rgb(90.135193%, 33.909607%, 33.325195%)" offset="0.46875"/><stop stop-opacity="1" stop-color="rgb(90.174866%, 34.0271%, 33.059692%)" offset="0.5"/><stop stop-opacity="1" stop-color="rgb(90.226746%, 34.272766%, 32.919312%)" offset="0.515625"/><stop stop-opacity="1" stop-color="rgb(90.278625%, 34.571838%, 32.917786%)" offset="0.523438"/><stop stop-opacity="1" stop-color="rgb(90.316772%, 34.799194%, 32.926941%)" offset="0.53125"/><stop stop-opacity="1" stop-color="rgb(90.354919%, 35.025024%, 32.936096%)" offset="0.539063"/><stop stop-opacity="1" stop-color="rgb(90.393066%, 35.25238%, 32.945251%)" offset="0.546875"/><stop stop-opacity="1" stop-color="rgb(90.431213%, 35.47821%, 32.954407%)" offset="0.554687"/><stop stop-opacity="1" stop-color="rgb(90.470886%, 35.705566%, 32.963562%)" offset="0.5625"/><stop stop-opacity="1" stop-color="rgb(90.509033%, 35.931396%, 32.972717%)" offset="0.570312"/><stop stop-opacity="1" stop-color="rgb(90.54718%, 36.157227%, 32.981873%)" offset="0.578125"/><stop stop-opacity="1" stop-color="rgb(90.585327%, 36.384583%, 32.991028%)" offset="0.585938"/><stop stop-opacity="1" stop-color="rgb(90.623474%, 36.610413%, 33.000183%)" offset="0.59375"/><stop stop-opacity="1" stop-color="rgb(90.661621%, 36.837769%, 33.009338%)" offset="0.601562"/><stop stop-opacity="1" stop-color="rgb(90.699768%, 37.063599%, 33.018494%)" offset="0.609375"/><stop stop-opacity="1" stop-color="rgb(90.737915%, 37.290955%, 33.027649%)" offset="0.617187"/><stop stop-opacity="1" stop-color="rgb(90.777588%, 37.516785%, 33.036804%)" offset="0.625"/><stop stop-opacity="1" stop-color="rgb(90.815735%, 37.742615%, 33.045959%)" offset="0.632812"/><stop stop-opacity="1" stop-color="rgb(90.853882%, 37.969971%, 33.055115%)" offset="0.640625"/><stop stop-opacity="1" stop-color="rgb(90.892029%, 38.195801%, 33.06427%)" offset="0.648438"/><stop stop-opacity="1" stop-color="rgb(90.930176%, 38.423157%, 33.073425%)" offset="0.65625"/><stop stop-opacity="1" stop-color="rgb(90.968323%, 38.648987%, 33.082581%)" offset="0.664062"/><stop stop-opacity="1" stop-color="rgb(91.00647%, 38.876343%, 33.091736%)" offset="0.671875"/><stop stop-opacity="1" stop-color="rgb(91.044617%, 39.102173%, 33.100891%)" offset="0.679687"/><stop stop-opacity="1" stop-color="rgb(91.082764%, 39.328003%, 33.110046%)" offset="0.6875"/><stop stop-opacity="1" stop-color="rgb(91.122437%, 39.555359%, 33.119202%)" offset="0.695312"/><stop stop-opacity="1" stop-color="rgb(91.160583%, 39.781189%, 33.128357%)" offset="0.703125"/><stop stop-opacity="1" stop-color="rgb(91.19873%, 40.008545%, 33.137512%)" offset="0.710938"/><stop stop-opacity="1" stop-color="rgb(91.236877%, 40.234375%, 33.146667%)" offset="0.71875"/><stop stop-opacity="1" stop-color="rgb(91.275024%, 40.461731%, 33.155823%)" offset="0.726562"/><stop stop-opacity="1" stop-color="rgb(91.313171%, 40.687561%, 33.164978%)" offset="0.734375"/><stop stop-opacity="1" stop-color="rgb(91.351318%, 40.913391%, 33.174133%)" offset="0.742187"/><stop stop-opacity="1" stop-color="rgb(91.389465%, 41.140747%, 33.183289%)" offset="0.75"/><stop stop-opacity="1" stop-color="rgb(91.427612%, 41.366577%, 33.192444%)" offset="0.757813"/><stop stop-opacity="1" stop-color="rgb(91.467285%, 41.593933%, 33.201599%)" offset="0.765625"/><stop stop-opacity="1" stop-color="rgb(91.505432%, 41.819763%, 33.210754%)" offset="0.773438"/><stop stop-opacity="1" stop-color="rgb(91.543579%, 42.047119%, 33.21991%)" offset="0.78125"/><stop stop-opacity="1" stop-color="rgb(91.581726%, 42.272949%, 33.229065%)" offset="0.789062"/><stop stop-opacity="1" stop-color="rgb(91.619873%, 42.498779%, 33.23822%)" offset="0.796875"/><stop stop-opacity="1" stop-color="rgb(91.65802%, 42.726135%, 33.247375%)" offset="0.804688"/><stop stop-opacity="1" stop-color="rgb(91.696167%, 42.951965%, 33.256531%)" offset="0.8125"/><stop stop-opacity="1" stop-color="rgb(91.734314%, 43.179321%, 33.265686%)" offset="0.820313"/><stop stop-opacity="1" stop-color="rgb(91.772461%, 43.405151%, 33.274841%)" offset="0.828125"/><stop stop-opacity="1" stop-color="rgb(91.812134%, 43.632507%, 33.283997%)" offset="0.835938"/><stop stop-opacity="1" stop-color="rgb(91.850281%, 43.858337%, 33.293152%)" offset="0.84375"/><stop stop-opacity="1" stop-color="rgb(91.888428%, 44.084167%, 33.302307%)" offset="0.851562"/><stop stop-opacity="1" stop-color="rgb(91.926575%, 44.311523%, 33.311462%)" offset="0.859375"/><stop stop-opacity="1" stop-color="rgb(91.964722%, 44.537354%, 33.320618%)" offset="0.867188"/><stop stop-opacity="1" stop-color="rgb(92.002869%, 44.764709%, 33.329773%)" offset="0.875"/><stop stop-opacity="1" stop-color="rgb(92.041016%, 44.99054%, 33.338928%)" offset="0.882813"/><stop stop-opacity="1" stop-color="rgb(92.079163%, 45.217896%, 33.348083%)" offset="0.890625"/><stop stop-opacity="1" stop-color="rgb(92.11731%, 45.443726%, 33.357239%)" offset="0.898438"/><stop stop-opacity="1" stop-color="rgb(92.156982%, 45.669556%, 33.366394%)" offset="0.90625"/><stop stop-opacity="1" stop-color="rgb(92.195129%, 45.896912%, 33.375549%)" offset="0.914062"/><stop stop-opacity="1" stop-color="rgb(92.233276%, 46.122742%, 33.384705%)" offset="0.921875"/><stop stop-opacity="1" stop-color="rgb(92.271423%, 46.350098%, 33.39386%)" offset="0.929688"/><stop stop-opacity="1" stop-color="rgb(92.30957%, 46.575928%, 33.403015%)" offset="0.9375"/><stop stop-opacity="1" stop-color="rgb(92.347717%, 46.803284%, 33.41217%)" offset="0.945313"/><stop stop-opacity="1" stop-color="rgb(92.385864%, 47.029114%, 33.421326%)" offset="0.953125"/><stop stop-opacity="1" stop-color="rgb(92.424011%, 47.254944%, 33.430481%)" offset="0.960937"/><stop stop-opacity="1" stop-color="rgb(92.462158%, 47.4823%, 33.439636%)" offset="0.96875"/><stop stop-opacity="1" stop-color="rgb(92.501831%, 47.70813%, 33.448792%)" offset="0.976562"/><stop stop-opacity="1" stop-color="rgb(92.539978%, 47.935486%, 33.457947%)" offset="0.984375"/><stop stop-opacity="1" stop-color="rgb(92.578125%, 48.161316%, 33.467102%)" offset="0.992188"/><stop stop-opacity="1" stop-color="rgb(92.616272%, 48.388672%, 33.476257%)" offset="1"/></linearGradient><clipPath id="e97b65c7ee"><path d="M 142 166 L 236 166 L 236 252 L 142 252 Z M 142 166 " clip-rule="nonzero"/></clipPath><clipPath id="db29f2aca7"><path d="M 234.371094 166.890625 C 236.40625 172.257812 236.300781 175.875 231.414062 180.292969 C 216.023438 194.183594 204.046875 210.738281 197.175781 230.585938 C 195.285156 236.058594 194.320312 241.953125 193.636719 247.761719 C 193.316406 250.4375 191.539062 251.984375 189.609375 251.984375 C 188.15625 251.984375 185.609375 251.054688 185.429688 247.761719 C 183.703125 223.726562 170.710938 205.988281 155.488281 188.839844 C 152.890625 185.902344 149.996094 183.226562 147.175781 180.496094 C 141.671875 175.15625 141.621094 174.972656 144.886719 167.007812 C 163.878906 182.929688 179.40625 201.390625 189.46875 225.566406 C 199.671875 201.621094 215.019531 182.90625 234.371094 166.890625 Z M 234.371094 166.890625 " clip-rule="nonzero"/></clipPath><linearGradient x1="274.790033" gradientTransform="matrix(1.286616, 0, 0, 1.287343, -211.92983, 30.303009)" y1="139.149994" x2="348.45998" gradientUnits="userSpaceOnUse" y2="139.149994" id="ec3d9ef2c2"><stop stop-opacity="1" stop-color="rgb(88.198853%, 28.199768%, 46.299744%)" offset="0"/><stop stop-opacity="1" stop-color="rgb(88.208008%, 28.225708%, 46.238708%)" offset="0.015625"/><stop stop-opacity="1" stop-color="rgb(88.232422%, 28.29895%, 46.072388%)" offset="0.0234375"/><stop stop-opacity="1" stop-color="rgb(88.264465%, 28.393555%, 45.858765%)" offset="0.03125"/><stop stop-opacity="1" stop-color="rgb(88.296509%, 28.486633%, 45.645142%)" offset="0.0390625"/><stop stop-opacity="1" stop-color="rgb(88.328552%, 28.581238%, 45.431519%)" offset="0.046875"/><stop stop-opacity="1" stop-color="rgb(88.360596%, 28.674316%, 45.217896%)" offset="0.0546875"/><stop stop-opacity="1" stop-color="rgb(88.391113%, 28.768921%, 45.004272%)" offset="0.0625"/><stop stop-opacity="1" stop-color="rgb(88.423157%, 28.863525%, 44.790649%)" offset="0.0703125"/><stop stop-opacity="1" stop-color="rgb(88.4552%, 28.956604%, 44.577026%)" offset="0.078125"/><stop stop-opacity="1" stop-color="rgb(88.487244%, 29.051208%, 44.363403%)" offset="0.0859375"/><stop stop-opacity="1" stop-color="rgb(88.519287%, 29.145813%, 44.14978%)" offset="0.09375"/><stop stop-opacity="1" stop-color="rgb(88.551331%, 29.238892%, 43.936157%)" offset="0.101562"/><stop stop-opacity="1" stop-color="rgb(88.583374%, 29.333496%, 43.722534%)" offset="0.109375"/><stop stop-opacity="1" stop-color="rgb(88.615417%, 29.426575%, 43.508911%)" offset="0.117187"/><stop stop-opacity="1" stop-color="rgb(88.647461%, 29.521179%, 43.295288%)" offset="0.125"/><stop stop-opacity="1" stop-color="rgb(88.677979%, 29.615784%, 43.083191%)" offset="0.132812"/><stop stop-opacity="1" stop-color="rgb(88.710022%, 29.708862%, 42.869568%)" offset="0.140625"/><stop stop-opacity="1" stop-color="rgb(88.742065%, 29.803467%, 42.655945%)" offset="0.148438"/><stop stop-opacity="1" stop-color="rgb(88.774109%, 29.898071%, 42.442322%)" offset="0.15625"/><stop stop-opacity="1" stop-color="rgb(88.806152%, 29.99115%, 42.228699%)" offset="0.164062"/><stop stop-opacity="1" stop-color="rgb(88.838196%, 30.085754%, 42.015076%)" offset="0.171875"/><stop stop-opacity="1" stop-color="rgb(88.870239%, 30.178833%, 41.801453%)" offset="0.179688"/><stop stop-opacity="1" stop-color="rgb(88.902283%, 30.273438%, 41.58783%)" offset="0.1875"/><stop stop-opacity="1" stop-color="rgb(88.934326%, 30.368042%, 41.374207%)" offset="0.195312"/><stop stop-opacity="1" stop-color="rgb(88.964844%, 30.461121%, 41.160583%)" offset="0.203125"/><stop stop-opacity="1" stop-color="rgb(88.996887%, 30.555725%, 40.94696%)" offset="0.210938"/><stop stop-opacity="1" stop-color="rgb(89.028931%, 30.648804%, 40.733337%)" offset="0.21875"/><stop stop-opacity="1" stop-color="rgb(89.060974%, 30.743408%, 40.519714%)" offset="0.226562"/><stop stop-opacity="1" stop-color="rgb(89.093018%, 30.838013%, 40.306091%)" offset="0.234375"/><stop stop-opacity="1" stop-color="rgb(89.125061%, 30.931091%, 40.092468%)" offset="0.242188"/><stop stop-opacity="1" stop-color="rgb(89.157104%, 31.025696%, 39.878845%)" offset="0.25"/><stop stop-opacity="1" stop-color="rgb(89.189148%, 31.1203%, 39.665222%)" offset="0.257812"/><stop stop-opacity="1" stop-color="rgb(89.221191%, 31.213379%, 39.451599%)" offset="0.265625"/><stop stop-opacity="1" stop-color="rgb(89.251709%, 31.307983%, 39.237976%)" offset="0.273437"/><stop stop-opacity="1" stop-color="rgb(89.283752%, 31.401062%, 39.024353%)" offset="0.28125"/><stop stop-opacity="1" stop-color="rgb(89.315796%, 31.495667%, 38.812256%)" offset="0.289062"/><stop stop-opacity="1" stop-color="rgb(89.347839%, 31.590271%, 38.598633%)" offset="0.296875"/><stop stop-opacity="1" stop-color="rgb(89.379883%, 31.68335%, 38.38501%)" offset="0.304687"/><stop stop-opacity="1" stop-color="rgb(89.411926%, 31.777954%, 38.171387%)" offset="0.3125"/><stop stop-opacity="1" stop-color="rgb(89.44397%, 31.872559%, 37.957764%)" offset="0.320312"/><stop stop-opacity="1" stop-color="rgb(89.476013%, 31.965637%, 37.744141%)" offset="0.328125"/><stop stop-opacity="1" stop-color="rgb(89.508057%, 32.060242%, 37.530518%)" offset="0.335937"/><stop stop-opacity="1" stop-color="rgb(89.538574%, 32.15332%, 37.316895%)" offset="0.34375"/><stop stop-opacity="1" stop-color="rgb(89.570618%, 32.247925%, 37.103271%)" offset="0.351562"/><stop stop-opacity="1" stop-color="rgb(89.602661%, 32.342529%, 36.889648%)" offset="0.359375"/><stop stop-opacity="1" stop-color="rgb(89.634705%, 32.435608%, 36.676025%)" offset="0.367187"/><stop stop-opacity="1" stop-color="rgb(89.666748%, 32.530212%, 36.462402%)" offset="0.375"/><stop stop-opacity="1" stop-color="rgb(89.698792%, 32.624817%, 36.248779%)" offset="0.382812"/><stop stop-opacity="1" stop-color="rgb(89.730835%, 32.717896%, 36.035156%)" offset="0.390625"/><stop stop-opacity="1" stop-color="rgb(89.762878%, 32.8125%, 35.821533%)" offset="0.398437"/><stop stop-opacity="1" stop-color="rgb(89.794922%, 32.905579%, 35.60791%)" offset="0.40625"/><stop stop-opacity="1" stop-color="rgb(89.825439%, 33.000183%, 35.394287%)" offset="0.414062"/><stop stop-opacity="1" stop-color="rgb(89.857483%, 33.094788%, 35.180664%)" offset="0.421875"/><stop stop-opacity="1" stop-color="rgb(89.889526%, 33.187866%, 34.967041%)" offset="0.429687"/><stop stop-opacity="1" stop-color="rgb(89.92157%, 33.282471%, 34.753418%)" offset="0.4375"/><stop stop-opacity="1" stop-color="rgb(89.953613%, 33.375549%, 34.539795%)" offset="0.445312"/><stop stop-opacity="1" stop-color="rgb(89.985657%, 33.470154%, 34.327698%)" offset="0.453125"/><stop stop-opacity="1" stop-color="rgb(90.0177%, 33.564758%, 34.114075%)" offset="0.460937"/><stop stop-opacity="1" stop-color="rgb(90.049744%, 33.657837%, 33.900452%)" offset="0.46875"/><stop stop-opacity="1" stop-color="rgb(90.081787%, 33.752441%, 33.686829%)" offset="0.476562"/><stop stop-opacity="1" stop-color="rgb(90.112305%, 33.847046%, 33.473206%)" offset="0.484375"/><stop stop-opacity="1" stop-color="rgb(90.144348%, 33.940125%, 33.259583%)" offset="0.492187"/><stop stop-opacity="1" stop-color="rgb(90.176392%, 34.034729%, 33.045959%)" offset="0.5"/><stop stop-opacity="1" stop-color="rgb(90.245056%, 34.385681%, 32.929993%)" offset="0.503906"/><stop stop-opacity="1" stop-color="rgb(90.298462%, 34.689331%, 32.922363%)" offset="0.507812"/><stop stop-opacity="1" stop-color="rgb(90.359497%, 35.05249%, 32.937622%)" offset="0.511719"/><stop stop-opacity="1" stop-color="rgb(90.422058%, 35.415649%, 32.952881%)" offset="0.515625"/><stop stop-opacity="1" stop-color="rgb(90.483093%, 35.777283%, 32.966614%)" offset="0.519531"/><stop stop-opacity="1" stop-color="rgb(90.544128%, 36.140442%, 32.981873%)" offset="0.523438"/><stop stop-opacity="1" stop-color="rgb(90.605164%, 36.502075%, 32.995605%)" offset="0.527344"/><stop stop-opacity="1" stop-color="rgb(90.667725%, 36.865234%, 33.010864%)" offset="0.53125"/><stop stop-opacity="1" stop-color="rgb(90.72876%, 37.228394%, 33.024597%)" offset="0.535156"/><stop stop-opacity="1" stop-color="rgb(90.789795%, 37.591553%, 33.039856%)" offset="0.539062"/><stop stop-opacity="1" stop-color="rgb(90.85083%, 37.953186%, 33.055115%)" offset="0.542969"/><stop stop-opacity="1" stop-color="rgb(90.913391%, 38.316345%, 33.070374%)" offset="0.546875"/><stop stop-opacity="1" stop-color="rgb(90.974426%, 38.679504%, 33.084106%)" offset="0.550781"/><stop stop-opacity="1" stop-color="rgb(91.035461%, 39.042664%, 33.099365%)" offset="0.554688"/><stop stop-opacity="1" stop-color="rgb(91.096497%, 39.404297%, 33.113098%)" offset="0.558594"/><stop stop-opacity="1" stop-color="rgb(91.157532%, 39.767456%, 33.128357%)" offset="0.5625"/><stop stop-opacity="1" stop-color="rgb(91.218567%, 40.129089%, 33.14209%)" offset="0.566406"/><stop stop-opacity="1" stop-color="rgb(91.281128%, 40.492249%, 33.157349%)" offset="0.570313"/><stop stop-opacity="1" stop-color="rgb(91.342163%, 40.855408%, 33.171082%)" offset="0.574219"/><stop stop-opacity="1" stop-color="rgb(91.403198%, 41.218567%, 33.18634%)" offset="0.578125"/><stop stop-opacity="1" stop-color="rgb(91.464233%, 41.5802%, 33.201599%)" offset="0.582031"/><stop stop-opacity="1" stop-color="rgb(91.526794%, 41.943359%, 33.216858%)" offset="0.585937"/><stop stop-opacity="1" stop-color="rgb(91.58783%, 42.306519%, 33.230591%)" offset="0.589844"/><stop stop-opacity="1" stop-color="rgb(91.648865%, 42.669678%, 33.24585%)" offset="0.59375"/><stop stop-opacity="1" stop-color="rgb(91.7099%, 43.031311%, 33.259583%)" offset="0.597656"/><stop stop-opacity="1" stop-color="rgb(91.772461%, 43.39447%, 33.274841%)" offset="0.601562"/><stop stop-opacity="1" stop-color="rgb(91.833496%, 43.756104%, 33.288574%)" offset="0.605469"/><stop stop-opacity="1" stop-color="rgb(91.894531%, 44.119263%, 33.303833%)" offset="0.609375"/><stop stop-opacity="1" stop-color="rgb(91.955566%, 44.482422%, 33.317566%)" offset="0.613281"/><stop stop-opacity="1" stop-color="rgb(92.016602%, 44.845581%, 33.332825%)" offset="0.617188"/><stop stop-opacity="1" stop-color="rgb(92.077637%, 45.207214%, 33.348083%)" offset="0.621094"/><stop stop-opacity="1" stop-color="rgb(92.140198%, 45.570374%, 33.363342%)" offset="0.625"/><stop stop-opacity="1" stop-color="rgb(92.201233%, 45.933533%, 33.377075%)" offset="0.628906"/><stop stop-opacity="1" stop-color="rgb(92.262268%, 46.296692%, 33.392334%)" offset="0.632812"/><stop stop-opacity="1" stop-color="rgb(92.323303%, 46.658325%, 33.406067%)" offset="0.636719"/><stop stop-opacity="1" stop-color="rgb(92.385864%, 47.021484%, 33.421326%)" offset="0.640625"/><stop stop-opacity="1" stop-color="rgb(92.446899%, 47.383118%, 33.435059%)" offset="0.644531"/><stop stop-opacity="1" stop-color="rgb(92.507935%, 47.746277%, 33.450317%)" offset="0.648438"/><stop stop-opacity="1" stop-color="rgb(92.56897%, 48.109436%, 33.46405%)" offset="0.652344"/><stop stop-opacity="1" stop-color="rgb(92.631531%, 48.472595%, 33.479309%)" offset="0.65625"/><stop stop-opacity="1" stop-color="rgb(92.692566%, 48.834229%, 33.494568%)" offset="0.660156"/><stop stop-opacity="1" stop-color="rgb(92.753601%, 49.197388%, 33.509827%)" offset="0.664063"/><stop stop-opacity="1" stop-color="rgb(92.814636%, 49.559021%, 33.52356%)" offset="0.667969"/><stop stop-opacity="1" stop-color="rgb(92.877197%, 49.92218%, 33.538818%)" offset="0.671875"/><stop stop-opacity="1" stop-color="rgb(92.938232%, 50.285339%, 33.552551%)" offset="0.675781"/><stop stop-opacity="1" stop-color="rgb(92.999268%, 50.648499%, 33.56781%)" offset="0.679687"/><stop stop-opacity="1" stop-color="rgb(93.060303%, 51.010132%, 33.581543%)" offset="0.683594"/><stop stop-opacity="1" stop-color="rgb(93.121338%, 51.373291%, 33.596802%)" offset="0.6875"/><stop stop-opacity="1" stop-color="rgb(93.182373%, 51.73645%, 33.610535%)" offset="0.691406"/><stop stop-opacity="1" stop-color="rgb(93.244934%, 52.099609%, 33.625793%)" offset="0.695312"/><stop stop-opacity="1" stop-color="rgb(93.305969%, 52.461243%, 33.641052%)" offset="0.699219"/><stop stop-opacity="1" stop-color="rgb(93.367004%, 52.824402%, 33.656311%)" offset="0.703125"/><stop stop-opacity="1" stop-color="rgb(93.42804%, 53.186035%, 33.670044%)" offset="0.707031"/><stop stop-opacity="1" stop-color="rgb(93.490601%, 53.549194%, 33.685303%)" offset="0.710938"/><stop stop-opacity="1" stop-color="rgb(93.551636%, 53.912354%, 33.699036%)" offset="0.714844"/><stop stop-opacity="1" stop-color="rgb(93.612671%, 54.275513%, 33.714294%)" offset="0.71875"/><stop stop-opacity="1" stop-color="rgb(93.673706%, 54.637146%, 33.728027%)" offset="0.722656"/><stop stop-opacity="1" stop-color="rgb(93.736267%, 55.000305%, 33.743286%)" offset="0.726562"/><stop stop-opacity="1" stop-color="rgb(93.797302%, 55.363464%, 33.758545%)" offset="0.730469"/><stop stop-opacity="1" stop-color="rgb(93.858337%, 55.726624%, 33.773804%)" offset="0.734375"/><stop stop-opacity="1" stop-color="rgb(93.919373%, 56.088257%, 33.787537%)" offset="0.738281"/><stop stop-opacity="1" stop-color="rgb(93.980408%, 56.451416%, 33.802795%)" offset="0.742188"/><stop stop-opacity="1" stop-color="rgb(94.041443%, 56.813049%, 33.816528%)" offset="0.746094"/><stop stop-opacity="1" stop-color="rgb(94.104004%, 57.176208%, 33.831787%)" offset="0.75"/><stop stop-opacity="1" stop-color="rgb(94.165039%, 57.539368%, 33.84552%)" offset="0.753906"/><stop stop-opacity="1" stop-color="rgb(94.226074%, 57.902527%, 33.860779%)" offset="0.757812"/><stop stop-opacity="1" stop-color="rgb(94.287109%, 58.26416%, 33.874512%)" offset="0.761719"/><stop stop-opacity="1" stop-color="rgb(94.34967%, 58.627319%, 33.889771%)" offset="0.765625"/><stop stop-opacity="1" stop-color="rgb(94.410706%, 58.990479%, 33.905029%)" offset="0.769531"/><stop stop-opacity="1" stop-color="rgb(94.471741%, 59.353638%, 33.920288%)" offset="0.773438"/><stop stop-opacity="1" stop-color="rgb(94.532776%, 59.715271%, 33.934021%)" offset="0.777344"/><stop stop-opacity="1" stop-color="rgb(94.595337%, 60.07843%, 33.94928%)" offset="0.78125"/><stop stop-opacity="1" stop-color="rgb(94.656372%, 60.440063%, 33.963013%)" offset="0.785156"/><stop stop-opacity="1" stop-color="rgb(94.717407%, 60.803223%, 33.978271%)" offset="0.789062"/><stop stop-opacity="1" stop-color="rgb(94.778442%, 61.166382%, 33.992004%)" offset="0.792969"/><stop stop-opacity="1" stop-color="rgb(94.839478%, 61.529541%, 34.007263%)" offset="0.796875"/><stop stop-opacity="1" stop-color="rgb(94.900513%, 61.891174%, 34.020996%)" offset="0.800781"/><stop stop-opacity="1" stop-color="rgb(94.963074%, 62.254333%, 34.036255%)" offset="0.804688"/><stop stop-opacity="1" stop-color="rgb(95.024109%, 62.615967%, 34.051514%)" offset="0.808594"/><stop stop-opacity="1" stop-color="rgb(95.085144%, 62.979126%, 34.066772%)" offset="0.8125"/><stop stop-opacity="1" stop-color="rgb(95.146179%, 63.342285%, 34.080505%)" offset="0.816406"/><stop stop-opacity="1" stop-color="rgb(95.20874%, 63.705444%, 34.095764%)" offset="0.820313"/><stop stop-opacity="1" stop-color="rgb(95.269775%, 64.067078%, 34.109497%)" offset="0.824219"/><stop stop-opacity="1" stop-color="rgb(95.330811%, 64.430237%, 34.124756%)" offset="0.828125"/><stop stop-opacity="1" stop-color="rgb(95.391846%, 64.793396%, 34.138489%)" offset="0.832031"/><stop stop-opacity="1" stop-color="rgb(95.454407%, 65.156555%, 34.153748%)" offset="0.835937"/><stop stop-opacity="1" stop-color="rgb(95.515442%, 65.518188%, 34.16748%)" offset="0.839844"/><stop stop-opacity="1" stop-color="rgb(95.576477%, 65.881348%, 34.182739%)" offset="0.84375"/><stop stop-opacity="1" stop-color="rgb(95.637512%, 66.242981%, 34.197998%)" offset="0.847656"/><stop stop-opacity="1" stop-color="rgb(95.698547%, 66.60614%, 34.213257%)" offset="0.851562"/><stop stop-opacity="1" stop-color="rgb(95.759583%, 66.969299%, 34.22699%)" offset="0.855469"/><stop stop-opacity="1" stop-color="rgb(95.822144%, 67.332458%, 34.242249%)" offset="0.859375"/><stop stop-opacity="1" stop-color="rgb(95.883179%, 67.694092%, 34.255981%)" offset="0.863281"/><stop stop-opacity="1" stop-color="rgb(95.944214%, 68.057251%, 34.27124%)" offset="0.867188"/><stop stop-opacity="1" stop-color="rgb(96.005249%, 68.42041%, 34.284973%)" offset="0.871094"/><stop stop-opacity="1" stop-color="rgb(96.06781%, 68.783569%, 34.300232%)" offset="0.875"/><stop stop-opacity="1" stop-color="rgb(96.128845%, 69.145203%, 34.313965%)" offset="0.878906"/><stop stop-opacity="1" stop-color="rgb(96.18988%, 69.508362%, 34.329224%)" offset="0.882812"/><stop stop-opacity="1" stop-color="rgb(96.250916%, 69.869995%, 34.344482%)" offset="0.886719"/><stop stop-opacity="1" stop-color="rgb(96.313477%, 70.233154%, 34.359741%)" offset="0.890625"/><stop stop-opacity="1" stop-color="rgb(96.374512%, 70.596313%, 34.373474%)" offset="0.894531"/><stop stop-opacity="1" stop-color="rgb(96.435547%, 70.959473%, 34.388733%)" offset="0.898438"/><stop stop-opacity="1" stop-color="rgb(96.496582%, 71.321106%, 34.402466%)" offset="0.902344"/><stop stop-opacity="1" stop-color="rgb(96.557617%, 71.684265%, 34.417725%)" offset="0.90625"/><stop stop-opacity="1" stop-color="rgb(96.618652%, 72.047424%, 34.431458%)" offset="0.910156"/><stop stop-opacity="1" stop-color="rgb(96.681213%, 72.410583%, 34.446716%)" offset="0.914063"/><stop stop-opacity="1" stop-color="rgb(96.742249%, 72.772217%, 34.460449%)" offset="0.917969"/><stop stop-opacity="1" stop-color="rgb(96.803284%, 73.135376%, 34.475708%)" offset="0.921875"/><stop stop-opacity="1" stop-color="rgb(96.850586%, 73.417664%, 34.486389%)" offset="0.925781"/><stop stop-opacity="1" stop-color="rgb(96.899414%, 73.699951%, 34.498596%)" offset="0.929687"/><stop stop-opacity="1" stop-color="rgb(96.899414%, 73.699951%, 34.498596%)" offset="0.9375"/><stop stop-opacity="1" stop-color="rgb(96.899414%, 73.699951%, 34.498596%)" offset="1"/></linearGradient><clipPath id="38f2f09de5"><path d="M 118.320312 145.9375 L 147.691406 145.9375 L 147.691406 175.308594 L 118.320312 175.308594 Z M 118.320312 145.9375 " clip-rule="nonzero"/></clipPath><clipPath id="4fcdbbcd00"><path d="M 133.003906 145.9375 C 124.894531 145.9375 118.320312 152.511719 118.320312 160.621094 C 118.320312 168.734375 124.894531 175.308594 133.003906 175.308594 C 141.117188 175.308594 147.691406 168.734375 147.691406 160.621094 C 147.691406 152.511719 141.117188 145.9375 133.003906 145.9375 " clip-rule="nonzero"/></clipPath><clipPath id="2212cc302d"><path d="M 118.320312 172.8125 L 147.691406 172.8125 L 147.691406 202.1875 L 118.320312 202.1875 Z M 118.320312 172.8125 " clip-rule="nonzero"/></clipPath><clipPath id="e7ee05c2a7"><path d="M 133.003906 172.8125 C 124.894531 172.8125 118.320312 179.390625 118.320312 187.5 C 118.320312 195.609375 124.894531 202.1875 133.003906 202.1875 C 141.117188 202.1875 147.691406 195.609375 147.691406 187.5 C 147.691406 179.390625 141.117188 172.8125 133.003906 172.8125 " clip-rule="nonzero"/></clipPath><clipPath id="63e66eb1a3"><path d="M 118.320312 199.691406 L 147.691406 199.691406 L 147.691406 229.0625 L 118.320312 229.0625 Z M 118.320312 199.691406 " clip-rule="nonzero"/></clipPath><clipPath id="1f34f4cd0a"><path d="M 133.003906 199.691406 C 124.894531 199.691406 118.320312 206.265625 118.320312 214.378906 C 118.320312 222.488281 124.894531 229.0625 133.003906 229.0625 C 141.117188 229.0625 147.691406 222.488281 147.691406 214.378906 C 147.691406 206.265625 141.117188 199.691406 133.003906 199.691406 " clip-rule="nonzero"/></clipPath><clipPath id="7d93e0f25a"><path d="M 118.320312 226.570312 L 147.691406 226.570312 L 147.691406 255.941406 L 118.320312 255.941406 Z M 118.320312 226.570312 " clip-rule="nonzero"/></clipPath><clipPath id="496f7bb06b"><path d="M 133.003906 226.570312 C 124.894531 226.570312 118.320312 233.144531 118.320312 241.257812 C 118.320312 249.367188 124.894531 255.941406 133.003906 255.941406 C 141.117188 255.941406 147.691406 249.367188 147.691406 241.257812 C 147.691406 233.144531 141.117188 226.570312 133.003906 226.570312 " clip-rule="nonzero"/></clipPath><clipPath id="50bcc671c2"><path d="M 118.320312 253.449219 L 147.691406 253.449219 L 147.691406 282.820312 L 118.320312 282.820312 Z M 118.320312 253.449219 " clip-rule="nonzero"/></clipPath><clipPath id="a783884a0a"><path d="M 133.003906 253.449219 C 124.894531 253.449219 118.320312 260.023438 118.320312 268.132812 C 118.320312 276.246094 124.894531 282.820312 133.003906 282.820312 C 141.117188 282.820312 147.691406 276.246094 147.691406 268.132812 C 147.691406 260.023438 141.117188 253.449219 133.003906 253.449219 " clip-rule="nonzero"/></clipPath><clipPath id="cbe59b2ca0"><path d="M 133.003906 241.257812 L 162.375 241.257812 L 162.375 270.628906 L 133.003906 270.628906 Z M 133.003906 241.257812 " clip-rule="nonzero"/></clipPath><clipPath id="952ea93b6c"><path d="M 147.691406 241.257812 C 139.578125 241.257812 133.003906 247.832031 133.003906 255.941406 C 133.003906 264.054688 139.578125 270.628906 147.691406 270.628906 C 155.800781 270.628906 162.375 264.054688 162.375 255.941406 C 162.375 247.832031 155.800781 241.257812 147.691406 241.257812 " clip-rule="nonzero"/></clipPath><clipPath id="b1b7fa7be3"><path d="M 133.003906 131.441406 L 162.375 131.441406 L 162.375 160.8125 L 133.003906 160.8125 Z M 133.003906 131.441406 " clip-rule="nonzero"/></clipPath><clipPath id="eb5d597dd5"><path d="M 147.691406 131.441406 C 139.578125 131.441406 133.003906 138.015625 133.003906 146.128906 C 133.003906 154.238281 139.578125 160.8125 147.691406 160.8125 C 155.800781 160.8125 162.375 154.238281 162.375 146.128906 C 162.375 138.015625 155.800781 131.441406 147.691406 131.441406 " clip-rule="nonzero"/></clipPath><clipPath id="99c00dbe88"><path d="M 133.003906 21.628906 L 162.375 21.628906 L 162.375 51 L 133.003906 51 Z M 133.003906 21.628906 " clip-rule="nonzero"/></clipPath><clipPath id="d437a69c2d"><path d="M 147.691406 21.628906 C 139.578125 21.628906 133.003906 28.203125 133.003906 36.3125 C 133.003906 44.425781 139.578125 51 147.691406 51 C 155.800781 51 162.375 44.425781 162.375 36.3125 C 162.375 28.203125 155.800781 21.628906 147.691406 21.628906 " clip-rule="nonzero"/></clipPath><clipPath id="c6a6e326f3"><path d="M 231.003906 131.25 L 260.375 131.25 L 260.375 160.621094 L 231.003906 160.621094 Z M 231.003906 131.25 " clip-rule="nonzero"/></clipPath><clipPath id="db9e5fde60"><path d="M 245.691406 131.25 C 237.578125 131.25 231.003906 137.824219 231.003906 145.9375 C 231.003906 154.046875 237.578125 160.621094 245.691406 160.621094 C 253.800781 160.621094 260.375 154.046875 260.375 145.9375 C 260.375 137.824219 253.800781 131.25 245.691406 131.25 " clip-rule="nonzero"/></clipPath><clipPath id="62e001d1d5"><path d="M 231.003906 143.441406 L 260.375 143.441406 L 260.375 172.8125 L 231.003906 172.8125 Z M 231.003906 143.441406 " clip-rule="nonzero"/></clipPath><clipPath id="946ad7886f"><path d="M 245.691406 143.441406 C 237.578125 143.441406 231.003906 150.015625 231.003906 158.128906 C 231.003906 166.238281 237.578125 172.8125 245.691406 172.8125 C 253.800781 172.8125 260.375 166.238281 260.375 158.128906 C 260.375 150.015625 253.800781 143.441406 245.691406 143.441406 " clip-rule="nonzero"/></clipPath><clipPath id="20f41273a5"><path d="M 231.003906 199.691406 L 260.375 199.691406 L 260.375 229.0625 L 231.003906 229.0625 Z M 231.003906 199.691406 " clip-rule="nonzero"/></clipPath><clipPath id="bcba6d2d95"><path d="M 245.691406 199.691406 C 237.578125 199.691406 231.003906 206.265625 231.003906 214.378906 C 231.003906 222.488281 237.578125 229.0625 245.691406 229.0625 C 253.800781 229.0625 260.375 222.488281 260.375 214.378906 C 260.375 206.265625 253.800781 199.691406 245.691406 199.691406 " clip-rule="nonzero"/></clipPath><clipPath id="7719b8cf71"><path d="M 231.003906 255.941406 L 260.375 255.941406 L 260.375 285.3125 L 231.003906 285.3125 Z M 231.003906 255.941406 " clip-rule="nonzero"/></clipPath><clipPath id="ae8afeb92f"><path d="M 245.691406 255.941406 C 237.578125 255.941406 231.003906 262.515625 231.003906 270.628906 C 231.003906 278.738281 237.578125 285.3125 245.691406 285.3125 C 253.800781 285.3125 260.375 278.738281 260.375 270.628906 C 260.375 262.515625 253.800781 255.941406 245.691406 255.941406 " clip-rule="nonzero"/></clipPath><clipPath id="2a8ec06452"><path d="M 216.316406 241.257812 L 245.691406 241.257812 L 245.691406 270.628906 L 216.316406 270.628906 Z M 216.316406 241.257812 " clip-rule="nonzero"/></clipPath><clipPath id="c95df3f601"><path d="M 231.003906 241.257812 C 222.894531 241.257812 216.316406 247.832031 216.316406 255.941406 C 216.316406 264.054688 222.894531 270.628906 231.003906 270.628906 C 239.113281 270.628906 245.691406 264.054688 245.691406 255.941406 C 245.691406 247.832031 239.113281 241.257812 231.003906 241.257812 " clip-rule="nonzero"/></clipPath><clipPath id="197396d252"><path d="M 231.003906 226.570312 L 260.375 226.570312 L 260.375 255.941406 L 231.003906 255.941406 Z M 231.003906 226.570312 " clip-rule="nonzero"/></clipPath><clipPath id="d886510116"><path d="M 245.691406 226.570312 C 237.578125 226.570312 231.003906 233.144531 231.003906 241.257812 C 231.003906 249.367188 237.578125 255.941406 245.691406 255.941406 C 253.800781 255.941406 260.375 249.367188 260.375 241.257812 C 260.375 233.144531 253.800781 226.570312 245.691406 226.570312 " clip-rule="nonzero"/></clipPath><clipPath id="495a3377be"><path d="M 245.691406 145.9375 L 275.0625 145.9375 L 275.0625 175.308594 L 245.691406 175.308594 Z M 245.691406 145.9375 " clip-rule="nonzero"/></clipPath><clipPath id="f0381df10e"><path d="M 260.375 145.9375 C 252.265625 145.9375 245.691406 152.511719 245.691406 160.621094 C 245.691406 168.734375 252.265625 175.308594 260.375 175.308594 C 268.488281 175.308594 275.0625 168.734375 275.0625 160.621094 C 275.0625 152.511719 268.488281 145.9375 260.375 145.9375 " clip-rule="nonzero"/></clipPath><clipPath id="2a2a6eca26"><path d="M 245.691406 165.472656 L 275.0625 165.472656 L 275.0625 194.84375 L 245.691406 194.84375 Z M 245.691406 165.472656 " clip-rule="nonzero"/></clipPath><clipPath id="c7b871737b"><path d="M 260.375 165.472656 C 252.265625 165.472656 245.691406 172.046875 245.691406 180.15625 C 245.691406 188.269531 252.265625 194.84375 260.375 194.84375 C 268.488281 194.84375 275.0625 188.269531 275.0625 180.15625 C 275.0625 172.046875 268.488281 165.472656 260.375 165.472656 " clip-rule="nonzero"/></clipPath></defs><g clip-path="url(#76ac8cbce5)"><g clip-path="url(#597c82e062)"><path fill="url(#a836e95b11)" d="M 133.003906 145.9375 L 133.003906 258.4375 L 245.503906 258.4375 L 245.503906 145.9375 Z M 133.003906 145.9375 " fill-rule="nonzero"/></g></g><g clip-path="url(#e97b65c7ee)"><g clip-path="url(#db29f2aca7)"><path fill="url(#ec3d9ef2c2)" d="M 141.621094 166.890625 L 141.621094 251.984375 L 236.40625 251.984375 L 236.40625 166.890625 Z M 141.621094 166.890625 " fill-rule="nonzero"/></g></g><g clip-path="url(#38f2f09de5)"><g clip-path="url(#4fcdbbcd00)"><path fill="#ffffff" d="M 118.320312 145.9375 L 147.691406 145.9375 L 147.691406 175.308594 L 118.320312 175.308594 Z M 118.320312 145.9375 " fill-opacity="1" fill-rule="nonzero"/></g></g><g clip-path="url(#2212cc302d)"><g clip-path="url(#e7ee05c2a7)"><path fill="#ffffff" d="M 118.320312 172.8125 L 147.691406 172.8125 L 147.691406 202.1875 L 118.320312 202.1875 Z M 118.320312 172.8125 " fill-opacity="1" fill-rule="nonzero"/></g></g><g clip-path="url(#63e66eb1a3)"><g clip-path="url(#1f34f4cd0a)"><path fill="#ffffff" d="M 118.320312 199.691406 L 147.691406 199.691406 L 147.691406 229.0625 L 118.320312 229.0625 Z M 118.320312 199.691406 " fill-opacity="1" fill-rule="nonzero"/></g></g><g clip-path="url(#7d93e0f25a)"><g clip-path="url(#496f7bb06b)"><path fill="#ffffff" d="M 118.320312 226.570312 L 147.691406 226.570312 L 147.691406 255.941406 L 118.320312 255.941406 Z M 118.320312 226.570312 " fill-opacity="1" fill-rule="nonzero"/></g></g><g clip-path="url(#50bcc671c2)"><g clip-path="url(#a783884a0a)"><path fill="#ffffff" d="M 118.320312 253.449219 L 147.691406 253.449219 L 147.691406 282.820312 L 118.320312 282.820312 Z M 118.320312 253.449219 " fill-opacity="1" fill-rule="nonzero"/></g></g><g clip-path="url(#cbe59b2ca0)"><g clip-path="url(#952ea93b6c)"><path fill="#ffffff" d="M 133.003906 241.257812 L 162.375 241.257812 L 162.375 270.628906 L 133.003906 270.628906 Z M 133.003906 241.257812 " fill-opacity="1" fill-rule="nonzero"/></g></g><g clip-path="url(#b1b7fa7be3)"><g clip-path="url(#eb5d597dd5)"><path fill="#ffffff" d="M 133.003906 131.441406 L 162.375 131.441406 L 162.375 160.8125 L 133.003906 160.8125 Z M 133.003906 131.441406 " fill-opacity="1" fill-rule="nonzero"/></g></g><g clip-path="url(#99c00dbe88)"><g clip-path="url(#d437a69c2d)"><path fill="#ffffff" d="M 133.003906 21.628906 L 162.375 21.628906 L 162.375 51 L 133.003906 51 Z M 133.003906 21.628906 " fill-opacity="1" fill-rule="nonzero"/></g></g><g clip-path="url(#c6a6e326f3)"><g clip-path="url(#db9e5fde60)"><path fill="#ffffff" d="M 231.003906 131.25 L 260.375 131.25 L 260.375 160.621094 L 231.003906 160.621094 Z M 231.003906 131.25 " fill-opacity="1" fill-rule="nonzero"/></g></g><g clip-path="url(#62e001d1d5)"><g clip-path="url(#946ad7886f)"><path fill="#ffffff" d="M 231.003906 143.441406 L 260.375 143.441406 L 260.375 172.8125 L 231.003906 172.8125 Z M 231.003906 143.441406 " fill-opacity="1" fill-rule="nonzero"/></g></g><g clip-path="url(#20f41273a5)"><g clip-path="url(#bcba6d2d95)"><path fill="#ffffff" d="M 231.003906 199.691406 L 260.375 199.691406 L 260.375 229.0625 L 231.003906 229.0625 Z M 231.003906 199.691406 " fill-opacity="1" fill-rule="nonzero"/></g></g><g clip-path="url(#7719b8cf71)"><g clip-path="url(#ae8afeb92f)"><path fill="#ffffff" d="M 231.003906 255.941406 L 260.375 255.941406 L 260.375 285.3125 L 231.003906 285.3125 Z M 231.003906 255.941406 " fill-opacity="1" fill-rule="nonzero"/></g></g><g clip-path="url(#2a8ec06452)"><g clip-path="url(#c95df3f601)"><path fill="#ffffff" d="M 216.316406 241.257812 L 245.691406 241.257812 L 245.691406 270.628906 L 216.316406 270.628906 Z M 216.316406 241.257812 " fill-opacity="1" fill-rule="nonzero"/></g></g><g clip-path="url(#197396d252)"><g clip-path="url(#d886510116)"><path fill="#ffffff" d="M 231.003906 226.570312 L 260.375 226.570312 L 260.375 255.941406 L 231.003906 255.941406 Z M 231.003906 226.570312 " fill-opacity="1" fill-rule="nonzero"/></g></g><g clip-path="url(#495a3377be)"><g clip-path="url(#f0381df10e)"><path fill="#ffffff" d="M 245.691406 145.9375 L 275.0625 145.9375 L 275.0625 175.308594 L 245.691406 175.308594 Z M 245.691406 145.9375 " fill-opacity="1" fill-rule="nonzero"/></g></g><g clip-path="url(#2a2a6eca26)"><g clip-path="url(#c7b871737b)"><path fill="#ffffff" d="M 245.691406 165.472656 L 275.0625 165.472656 L 275.0625 194.84375 L 245.691406 194.84375 Z M 245.691406 165.472656 " fill-opacity="1" fill-rule="nonzero"/></g></g></svg>