<?xml version="1.0" encoding="utf-8"?>
<!-- Generator: Adobe Illustrator 25.2.1, SVG Export Plug-In . SVG Version: 6.00 Build 0)  -->
<svg version="1.1" id="Capa_1" xmlns="http://www.w3.org/2000/svg" xmlns:xlink="http://www.w3.org/1999/xlink" x="0px" y="0px"
	 viewBox="0 0 597.2 397.33" style="enable-background:new 0 0 597.2 397.33;" xml:space="preserve">
<style type="text/css">
	.st0{fill:#1A1B21;}
	.st1{fill:#E24A71;}
	.st2{fill:#F7BC58;}
	.st3{fill:#E45360;}
	.st4{fill:#F29D56;}
	.st5{fill:#E66554;}
	.st6{fill:url(#SVGID_1_);}
	.st7{fill:url(#SVGID_2_);}
</style>
<g>
	<g>
		<g>
			<path class="st0" d="M210.73,349.94v9.62h-1.6v-12.6h1.24l7.81,9.81v-9.79h1.6v12.58h-1.35L210.73,349.94z"/>
			<path class="st0" d="M228.4,346.96h1.35l5.14,12.6h-1.7l-1.49-3.69h-5.29l-1.47,3.69h-1.7L228.4,346.96z M231.34,354.62
				l-2.27-5.82l-2.34,5.82H231.34z"/>
			<path class="st0" d="M238.35,359.55v-12.6h1.6v12.6H238.35z"/>
			<path class="st0" d="M244.73,359.55v-12.6h1.6v11.18h7.03v1.42H244.73z"/>
			<path class="st0" d="M264.27,349.6c-0.14-0.17-0.33-0.33-0.57-0.48c-0.24-0.15-0.5-0.29-0.8-0.42c-0.3-0.12-0.62-0.22-0.97-0.3
				c-0.35-0.08-0.71-0.12-1.09-0.12c-0.98,0-1.7,0.18-2.16,0.55c-0.46,0.37-0.68,0.87-0.68,1.51c0,0.34,0.06,0.63,0.19,0.85
				c0.13,0.22,0.33,0.42,0.61,0.58c0.28,0.16,0.62,0.3,1.04,0.42c0.41,0.12,0.9,0.24,1.47,0.37c0.65,0.14,1.24,0.3,1.77,0.49
				c0.53,0.18,0.98,0.41,1.35,0.68c0.37,0.27,0.66,0.6,0.85,0.99c0.19,0.39,0.29,0.87,0.29,1.44c0,0.6-0.12,1.13-0.35,1.57
				s-0.56,0.81-0.97,1.1c-0.41,0.29-0.89,0.5-1.45,0.64c-0.56,0.14-1.16,0.2-1.81,0.2c-0.97,0-1.89-0.15-2.76-0.45
				c-0.87-0.3-1.66-0.74-2.37-1.32l0.76-1.35c0.19,0.2,0.43,0.4,0.74,0.6c0.3,0.2,0.64,0.38,1.03,0.54c0.38,0.16,0.8,0.29,1.24,0.39
				c0.44,0.1,0.91,0.15,1.39,0.15c0.9,0,1.6-0.16,2.09-0.48c0.5-0.32,0.74-0.8,0.74-1.44c0-0.35-0.08-0.65-0.24-0.9
				c-0.16-0.24-0.39-0.45-0.7-0.63c-0.31-0.18-0.69-0.33-1.14-0.47c-0.46-0.14-0.97-0.27-1.55-0.42c-0.64-0.15-1.2-0.32-1.69-0.5
				c-0.48-0.18-0.89-0.39-1.21-0.64c-0.33-0.25-0.57-0.55-0.74-0.9c-0.17-0.35-0.25-0.78-0.25-1.28c0-0.6,0.11-1.14,0.34-1.6
				c0.22-0.46,0.54-0.85,0.94-1.17c0.4-0.32,0.88-0.56,1.44-0.72c0.56-0.16,1.16-0.24,1.81-0.24c0.85,0,1.62,0.13,2.31,0.39
				c0.69,0.26,1.3,0.61,1.83,1.05L264.27,349.6z"/>
			<path class="st0" d="M278.99,346.96h1.35l5.14,12.6h-1.7l-1.49-3.69H277l-1.47,3.69h-1.7L278.99,346.96z M281.94,354.62
				l-2.27-5.82l-2.34,5.82H281.94z"/>
			<path class="st0" d="M288.94,359.55v-12.6h5.39c0.56,0,1.07,0.12,1.53,0.35c0.47,0.23,0.87,0.54,1.21,0.92
				c0.34,0.38,0.6,0.82,0.79,1.3c0.19,0.48,0.28,0.97,0.28,1.46c0,0.44-0.06,0.86-0.19,1.27c-0.12,0.41-0.3,0.78-0.53,1.11
				c-0.23,0.33-0.51,0.62-0.83,0.85c-0.33,0.24-0.69,0.41-1.09,0.51l3.05,4.83h-1.81l-2.87-4.52h-3.33v4.52H288.94z M290.54,353.61
				h3.81c0.33,0,0.63-0.07,0.9-0.21c0.27-0.14,0.49-0.33,0.68-0.58c0.19-0.24,0.34-0.52,0.44-0.84s0.16-0.65,0.16-0.99
				c0-0.35-0.06-0.69-0.19-1c-0.12-0.31-0.29-0.59-0.5-0.83c-0.21-0.24-0.45-0.43-0.73-0.57c-0.28-0.14-0.57-0.2-0.88-0.2h-3.71
				V353.61z"/>
			<path class="st0" d="M311.35,348.38H307v11.18h-1.6v-11.18h-4.35v-1.42h10.29V348.38z"/>
			<path class="st0" d="M323.94,346.96h1.35l5.14,12.6h-1.7l-1.49-3.69h-5.29l-1.47,3.69h-1.7L323.94,346.96z M326.89,354.62
				l-2.27-5.82l-2.34,5.82H326.89z"/>
			<path class="st0" d="M332.62,353.17c0-0.76,0.13-1.51,0.4-2.26c0.27-0.75,0.66-1.43,1.17-2.02c0.51-0.6,1.14-1.08,1.89-1.45
				c0.74-0.37,1.59-0.55,2.54-0.55c1.12,0,2.09,0.25,2.89,0.76c0.8,0.51,1.4,1.17,1.79,1.99l-1.26,0.82
				c-0.19-0.4-0.42-0.74-0.68-1.01c-0.27-0.27-0.56-0.49-0.87-0.66c-0.31-0.17-0.64-0.28-0.97-0.35c-0.33-0.07-0.66-0.11-0.98-0.11
				c-0.7,0-1.32,0.14-1.85,0.43c-0.54,0.29-0.99,0.67-1.36,1.14c-0.37,0.47-0.64,0.99-0.82,1.58c-0.18,0.59-0.28,1.17-0.28,1.77
				c0,0.66,0.11,1.29,0.33,1.89c0.22,0.6,0.52,1.13,0.91,1.59c0.39,0.46,0.85,0.83,1.38,1.1s1.11,0.41,1.74,0.41
				c0.33,0,0.67-0.04,1.02-0.12c0.35-0.08,0.68-0.22,1-0.4c0.32-0.18,0.62-0.41,0.9-0.69c0.28-0.28,0.51-0.61,0.68-1l1.33,0.73
				c-0.2,0.47-0.48,0.89-0.84,1.25c-0.36,0.36-0.77,0.67-1.22,0.91c-0.46,0.25-0.94,0.44-1.45,0.57c-0.51,0.13-1.01,0.2-1.49,0.2
				c-0.86,0-1.66-0.19-2.38-0.57c-0.72-0.38-1.35-0.87-1.87-1.48c-0.53-0.61-0.93-1.3-1.22-2.08
				C332.76,354.76,332.62,353.97,332.62,353.17z"/>
			<path class="st0" d="M350.96,346.96h1.35l5.14,12.6h-1.7l-1.49-3.69h-5.29l-1.47,3.69h-1.7L350.96,346.96z M353.91,354.62
				l-2.27-5.82l-2.34,5.82H353.91z"/>
			<path class="st0" d="M360.91,359.55v-12.6h4.36c1.01,0,1.89,0.17,2.65,0.5c0.76,0.33,1.4,0.78,1.91,1.35
				c0.51,0.57,0.89,1.23,1.14,2c0.25,0.76,0.38,1.58,0.38,2.44c0,0.96-0.14,1.82-0.43,2.6c-0.28,0.77-0.69,1.44-1.22,1.99
				c-0.53,0.55-1.17,0.98-1.92,1.28c-0.75,0.3-1.59,0.45-2.51,0.45H360.91z M369.75,353.24c0-0.71-0.1-1.36-0.29-1.96
				c-0.19-0.6-0.48-1.11-0.87-1.53c-0.38-0.43-0.85-0.76-1.41-1c-0.56-0.24-1.19-0.36-1.9-0.36h-2.77v9.76h2.77
				c0.72,0,1.36-0.12,1.92-0.37c0.56-0.25,1.03-0.59,1.4-1.03c0.37-0.44,0.66-0.95,0.85-1.55
				C369.65,354.58,369.75,353.94,369.75,353.24z"/>
			<path class="st0" d="M383.94,358.13v1.42h-8.55v-12.6h8.39v1.42h-6.79v4.08h5.91v1.33h-5.91v4.35H383.94z"/>
			<path class="st0" d="M398.79,359.55v-9.74l-4.19,7.47h-0.9l-4.2-7.47v9.74h-1.6v-12.6h1.69l4.56,8.18l4.58-8.18h1.67v12.6H398.79
				z"/>
			<path class="st0" d="M405.66,346.96l3.81,6.56l3.85-6.56h1.74l-4.79,8v4.59h-1.6v-4.63l-4.77-7.97H405.66z"/>
		</g>
		<g>
			<circle class="st1" cx="196.01" cy="146.9" r="4.19"/>
			<circle class="st2" cx="427.27" cy="146.9" r="4.19"/>
			<circle class="st3" cx="238.58" cy="107.88" r="4.19"/>
			<circle class="st4" cx="385.34" cy="107.88" r="4.19"/>
			<circle class="st5" cx="312.09" cy="62.4" r="4.19"/>
			<g>
				<linearGradient id="SVGID_1_" gradientUnits="userSpaceOnUse" x1="174.8052" y1="126.4717" x2="449.3814" y2="126.4717">
					<stop  offset="0" style="stop-color:#E14876"/>
					<stop  offset="0.5" style="stop-color:#E65754"/>
					<stop  offset="0.9346" style="stop-color:#F7BC58"/>
				</linearGradient>
				<path class="st6" d="M313.69,36.74c6.4,5.45,13.21,10.49,19.13,16.42c33.76,33.87,39.81,89.7,14.07,129.88
					c-3.55,5.54-5.78,7.88-9.96,13.03c-4.4,4.8-10.83,8.21-16.44,4.93c1.62-1.26,3.32-2.53,4.97-3.88
					c17.88-14.52,26.81-33.96,29.7-56.23c3.4-26.19-2.44-50.4-17.84-72.06c-6.32-8.89-14.1-16.35-22.83-22.89
					c-1.94-1.45-3.13-1.35-5,0.06c-24.02,18.01-38.06,41.72-40.91,71.74c-2.3,24.19,2.71,46.6,17.46,66.27
					c12.97,17.29,30.21,26.63,52.08,25.95c17.28-0.54,31.43-8.37,43.05-20.75c25.05-26.68,27.33-64.92,12.75-97.01
					c-1.22-2.68-2.76-2.67-4.91-1.77c-7.61,3.19-15.21,6.4-22.83,9.61c-2.48-5.76-2.57-5.47,3.53-8.15
					c7.45-3.27,15.16-6.44,22.74-9.42c2.73-1.07,4.2,0.12,5.32,2.33c17.21,34.02,16.88,75.16-8.87,105.73
					c-4.67,5.54-10.81,9.85-16.31,14.69c-1,0.88-2.18,1.54-3.14,3.12c3.64,0,7.32,0.37,10.9-0.06c16.28-1.99,30.5-8.13,42.12-20.21
					c10.62-11.05,15.73-24.46,18.48-39.07c0.69-3.66,0.74-7.44,1.2-11.16c0.35-2.81-1.08-4.3-3.96-4.54
					c-8.32-0.7-16.02-0.89-24.31-0.91c0.73-5.21,0.91-6.13,7.44-5.9c8.25,0.29,16.47,0.56,24.69,1.38c3.14,0.31,3.37,2.71,3.34,5.22
					c-0.19,17.18-3.92,33.37-12.68,48.37c-9.69,16.57-24.36,26.39-42.17,32.11c-12.68,4.07-25.56,3.95-38.51,1.28
					c-1.56-0.32-3.17-0.29-4.73,0.07c-12.63,2.94-25.07,2.58-37.4-1.57c-1.15-0.39-3-0.39-4.15-0.01
					c-12.21,4.03-24.48,4.3-37.05,1.69c-3.57-0.74-7.57,0.44-11.35,0.93c-26.39,3.36-49.09-4.79-66.62-24.27
					c-14.92-16.58-20.18-37.46-19.91-59.61c0.02-1.43,1.02-3.78,3.4-4.07c7.93-0.96,15.83-0.91,23.81-1.05
					c6.9-0.12,6.35,0.57,7.57,6.05c-8.18-0.35-12.7-0.18-22.27,0.48c-5.57,0.38-5.59,0.5-5.32,6.2c0.68,14.56,4.57,28.4,12.8,40.25
					c10.2,14.69,24.36,24.42,42.51,27.18c6.42,0.98,8.59,1.3,15.86,1.69c0.91-0.01,4.12-0.03,4.15-0.12
					c-1.71-0.98-3.73-1.97-5.36-3.08c-21.19-14.42-32.9-34.69-36.57-59.78c-3.04-20.82,1.19-40.46,9.96-59.36
					c1.78-3.83,3.91-5.28,8.03-3.58c7.02,2.9,14.25,5.33,21.18,8.43c5.63,2.52,5.49,2.83,3.39,8.76c-7.98-4-15.37-6.5-23.08-9.7
					c-1.93-0.8-3.53-0.95-4.63,1.61c-11.99,27.73-13.37,55.37,1.73,82.33c10.85,19.37,27.04,32.23,49.59,35.25
					c6.71,0.9,13.67-0.1,21.03-0.24c-6.72-6.06-13.04-10.85-18.26-16.64c-13.03-14.44-19.77-31.98-22.11-51.03
					c-3.87-31.59,4.24-59.99,25.1-84.19c5.74-6.65,13.06-11.94,19.66-17.85c1.1-0.99,2.25-1.92,3.38-2.87
					C311.42,35.97,312.52,35.87,313.69,36.74z"/>
				<linearGradient id="SVGID_2_" gradientUnits="userSpaceOnUse" x1="275.6174" y1="139.1503" x2="347.8474" y2="139.1503">
					<stop  offset="0" style="stop-color:#E14876"/>
					<stop  offset="0.5" style="stop-color:#E65754"/>
					<stop  offset="0.9346" style="stop-color:#F7BC58"/>
				</linearGradient>
				<path class="st7" d="M346.88,106.1c1.58,4.17,1.5,6.98-2.3,10.41c-11.96,10.79-21.27,23.65-26.61,39.07
					c-1.47,4.25-2.22,8.83-2.75,13.34c-0.25,2.08-1.63,3.28-3.13,3.28c-1.13,0-3.11-0.72-3.25-3.28
					c-1.34-18.67-11.44-32.45-23.27-45.77c-2.02-2.28-4.27-4.36-6.46-6.48c-4.28-4.15-4.32-4.29-1.78-10.48
					c14.76,12.37,26.83,26.71,34.65,45.49C319.91,133.08,331.84,118.54,346.88,106.1z"/>
			</g>
		</g>
	</g>
	<g>
		<path class="st0" d="M174.66,247.76c0.89,0,1.66-0.33,2.32-0.98c0.65-0.65,0.98-1.42,0.98-2.31c0-0.95-0.33-1.75-0.98-2.41
			c-0.66-0.65-1.42-0.98-2.32-0.98c-0.95,0-1.75,0.33-2.4,0.98c-0.66,0.66-0.98,1.46-0.98,2.41c0,0.89,0.33,1.66,0.98,2.31
			C172.91,247.44,173.72,247.76,174.66,247.76z"/>
		<path class="st0" d="M314.75,279.2c-0.3,0-0.48,0.09-0.53,0.27l-3.3,12.11c-0.89,2.79-1.96,5.08-3.21,6.86
			c-1.01,1.25-1.93,1.87-2.76,1.87c-1.07-0.06-2.2-0.92-3.38-2.58c-1.31-2.26-1.96-5.55-1.96-9.89c0-4.57,0.8-10.63,2.4-18.17
			c0.12-0.59,0.18-1.4,0.18-2.41c0-3.09-1.48-4.66-4.45-4.72c-2.26,0-3.62,2.26-4.1,6.77l-0.18,0.62c-1.6-1.54-2.73-2.52-3.38-2.94
			c-1.25-0.77-2.52-1.16-3.83-1.16c-3.33,0-5.88,1.78-7.66,5.34c-1.6,2.9-2.4,6.69-2.4,11.36c-0.35,0.99-0.76,2.27-1.25,3.87
			l-2.14,6.68c-1.01,3.68-2.37,7.63-4.1,11.85c-2.14,5.04-3.92,7.57-5.34,7.57c-1.13,0-2.23-1.25-3.3-3.74
			c-1.55-3.38-2.32-7.24-2.32-11.58c0-3.32,0.12-6.38,0.36-9.17c0.36-4.39,0.53-8.58,0.53-12.56c0-4.04-0.36-8.11-1.07-12.2
			c-0.71-3.15-1.66-5.09-2.85-5.83c-1.19-0.74-2.26-1.11-3.21-1.11c-2.73,0-5.31,1.9-7.75,5.7c-1.96,3.09-3.71,7.57-5.26,13.45
			l-0.62,2.23c-1.19,3.92-2.17,7.81-2.94,11.67l-0.09,0.09l0.18-2.05c0.06-1.3,0.15-2.34,0.27-3.12v-0.18
			c0.41-4.69,0.62-8.19,0.62-10.51c0-2.73-1.04-4.1-3.12-4.1c-2.38,0-3.95,0.8-4.72,2.4c-0.53,1.13-0.86,2.46-0.98,4.01
			c-0.18,0.36-0.27,2.08-0.27,5.16c0,0.56,0.01,1.08,0.02,1.61l-2.42,8.89c-0.89,2.79-1.96,5.08-3.21,6.86
			c-1.01,1.25-1.93,1.87-2.76,1.87c-1.07-0.06-2.2-0.92-3.38-2.58c-1.31-2.26-1.96-5.55-1.96-9.89c0-4.57,0.8-10.63,2.4-18.17
			c0.12-0.59,0.18-1.4,0.18-2.41c0-3.09-1.49-4.66-4.45-4.72c-2.26,0-3.62,2.26-4.1,6.77l-0.18,0.62c-1.6-1.54-2.73-2.52-3.38-2.94
			c-1.25-0.77-2.52-1.16-3.83-1.16c-3.33,0-5.88,1.78-7.66,5.34c-1.32,2.4-2.09,5.41-2.32,9.01c-0.13,0.36-0.34,1.18-0.62,2.48
			l-2.14,8.28c-1.31,4.81-2.85,8.55-4.63,11.22c-1.01,1.42-2.08,2.14-3.21,2.14c-2.14-0.24-3.21-3.98-3.21-11.22
			c0-5.04,0.27-9.77,0.8-14.16l0.09-1.16c0-1.01-0.18-1.87-0.53-2.58c-0.42-0.95-1.46-1.57-3.12-1.87l-0.89-0.09
			c-2.32,0-3.8,1.19-4.45,3.56c-0.29,1.07-0.51,2.19-0.67,3.35c-2.51,1.03-4.9,1.55-7.16,1.55c-3.27,0-5.73-1.07-7.39-3.21
			c-0.36-0.65-0.53-2.11-0.53-4.36v-2.31c0-6.83-0.95-11.9-2.85-15.23c-1.07-1.54-2.44-2.32-4.1-2.32c-1.55,0-2.79,0.56-3.74,1.69
			c-0.65,0.77-0.98,1.69-0.98,2.76c0,3.86,0.36,6.89,1.07,9.08c0.77,2.61,2.32,5.31,4.63,8.11c1.13,1.37,2.26,2.46,3.38,3.3
			c0,3.8-0.66,8.61-1.96,14.43c-0.71,3.03-1.57,5.46-2.58,7.3c-0.65,1.13-1.22,1.69-1.69,1.69c-0.42,0-0.86-0.48-1.34-1.42
			c-1.84-4.39-3.09-11.79-3.74-22.18c-0.04-0.69-0.09-1.33-0.14-1.95c0,0,0.01-0.01,0.01-0.01c0.62-0.83,0.99-1.58,1.11-2.26
			c0.12-0.68,0.18-1.2,0.18-1.55c0-2.25-1.39-3.63-4.17-4.17l-0.14-0.01c-0.31-0.07-0.57-0.11-0.77-0.11
			c-0.83,0-1.66,0.24-2.49,0.71c-1.19,0.65-1.99,1.63-2.4,2.94c-0.09,0.43-0.17,0.88-0.24,1.32c-41.25,0.38-67.04,4.81-77.33,13.29
			c-0.5,0.6-0.75,1.35-0.75,2.24c0.2,1.39,1,2.09,2.39,2.09c0.7,0,1.25-0.2,1.64-0.6c7.09-6.88,20.45-11.03,40.11-12.42
			c8.88-0.7,18.76-1.05,29.63-1.05c1.41,0,2.71,0.01,3.9,0.02c-0.04,0.73-0.07,1.47-0.07,2.22c0,5.17,0.92,10.3,2.76,15.41
			c1.25,3.56,2.79,6.35,4.63,8.37c2.43,2.49,4.48,3.74,6.14,3.74h0.53c3.21-0.42,5.58-4.04,7.12-10.87
			c0.83-3.8,1.48-8.85,1.96-15.14c1.37,1.31,2.82,2.08,4.37,2.32c1.54,0.24,2.79,0.36,3.74,0.36c2.66,0,5-0.53,7.03-1.59
			c-0.05,0.75-0.08,1.52-0.08,2.31c0,4.81,0.92,9.32,2.76,13.54c1.42,3.38,3.5,5.85,6.23,7.39c1.13,0.53,2.29,0.8,3.47,0.8
			c1.54,0,2.82-0.36,3.83-1.07c2.19-1.66,4.01-5.11,5.43-10.33c0.6-2.23,1.14-4.41,1.63-6.56c0.75,3.61,2.24,6.44,4.52,8.43
			c1.07,1.07,2.28,1.6,3.65,1.6c1.72,0,3.47-2.19,5.25-6.59l3.38-8.73c0.06,0,0.09,0.18,0.09,0.53c0,1.9,0.51,4.57,1.52,8.01
			c0.83,2.91,2.09,5.38,3.78,7.39c1.69,2.02,3.67,3.06,5.92,3.12h0.53c3.56-0.12,6.32-4.39,8.28-12.83c0-0.04,0.01-0.1,0.02-0.2
			c0.73,6.66,2.5,9.99,5.32,9.99c1.66,0,2.91-1.01,3.74-3.03c0.47-1.48,0.83-3.03,1.07-4.63c0.53-3.03,1.52-7.54,2.94-13.54
			l0.18-0.53c2.2-9.26,4.99-15.14,8.37-17.63c0.53-0.41,1.01-0.62,1.42-0.62c0.83,0,1.25,0.89,1.25,2.67
			c-0.06,3.26-0.42,6.68-1.07,10.24c-0.89,5.11-1.34,10.04-1.34,14.79c0,5.29,0.48,9.77,1.42,13.45c1.48,5.76,4.04,10.09,7.66,13
			c1.72,1.42,3.41,2.14,5.08,2.14c2.85,0,5.19-2.14,7.04-6.41c0.71-1.78,1.29-3.4,1.74-4.85c0.45-1.45,0.9-2.86,1.38-4.23
			c1.01-3.03,1.96-6,2.85-8.9l0.6-2.01c0.79,3.31,2.25,5.92,4.39,7.8c1.07,1.07,2.29,1.6,3.65,1.6c1.72,0,3.47-2.19,5.26-6.59
			l3.38-8.73c0.06,0,0.09,0.18,0.09,0.53c0,1.9,0.5,4.57,1.51,8.01c0.83,2.91,2.09,5.38,3.79,7.39c1.69,2.02,3.66,3.06,5.92,3.12
			h0.53c3.56-0.12,6.32-4.39,8.28-12.83c0-0.3,0.47-2.58,1.43-6.86c0.3-1.36,0.44-2.26,0.44-2.67
			C315.56,279.41,315.29,279.2,314.75,279.2z M149.91,275.55c-1.84-2.37-3.35-5.16-4.54-8.37c-1.01-2.61-1.51-5.11-1.51-7.48
			c0-2.55,0.44-3.83,1.34-3.83c0.77,0,1.63,1.07,2.58,3.21c1.01,2.55,1.62,4.93,1.83,7.12c0.21,2.2,0.31,4.33,0.31,6.41V275.55z
			 M205.84,279.47l-1.78,4.45c-2.2,6.23-3.86,9.35-4.99,9.35c-1.07,0-1.6-2.46-1.6-7.39c0-7.96,1.51-13.09,4.54-15.41
			c0.24-0.18,0.5-0.27,0.8-0.27c1.01,0,1.99,1.07,2.94,3.21c0.48,1.13,0.71,2.14,0.71,3.03
			C206.46,277.22,206.25,278.22,205.84,279.47z M292.31,279.47l-1.78,4.45c-2.2,6.23-3.86,9.35-4.99,9.35c-1.07,0-1.6-2.46-1.6-7.39
			c0-7.96,1.51-13.09,4.54-15.41c0.23-0.18,0.5-0.27,0.8-0.27c1.01,0,1.99,1.07,2.94,3.21c0.47,1.13,0.71,2.14,0.71,3.03
			C292.94,277.22,292.73,278.22,292.31,279.47z"/>
		<path class="st0" d="M434.36,247.76c0.89,0,1.66-0.33,2.32-0.98c0.65-0.65,0.98-1.42,0.98-2.31c0-0.95-0.33-1.75-0.98-2.41
			c-0.66-0.65-1.42-0.98-2.32-0.98c-0.95,0-1.75,0.33-2.4,0.98c-0.66,0.66-0.98,1.46-0.98,2.41c0,0.89,0.33,1.66,0.98,2.31
			C432.61,247.44,433.41,247.76,434.36,247.76z"/>
		<path class="st0" d="M572.28,288.85c-10.09-4.09-33.6-4.05-66.59,0.04c0,0-4.43,0.51-7.24,1.09c-0.68,0.14-1.38,0.08-2.02-0.16
			l-1.26-0.83c-0.7-0.46-1.26-1.09-1.65-1.82c-0.72-1.34-1.49-2.68-2.3-4c-1.04-1.69-1.71-2.92-2-3.7c-0.3-0.77-0.45-1.39-0.45-1.87
			c0-0.53,0.33-1.28,0.98-2.23c2.08-2.85,3.12-5.79,3.12-8.82c0-1.84-0.53-3.34-1.6-4.5c-1.07-1.16-2.26-1.74-3.56-1.74
			c-1.84,0-3.56,0.95-5.17,2.85c-1.72,2.31-2.58,4.99-2.58,8.01c0,3.27,0.53,6.23,1.6,8.91l0.1,0.3c-0.44,1.02-0.95,2.49-1.52,4.42
			l-1.25,4.36c-1.84,7.07-3.64,12.54-5.39,16.43c-1.75,3.89-3.67,5.83-5.74,5.83c-1.6,0-2.94-1.4-4.01-4.19
			c-0.59-1.48-1.07-2.82-1.42-4.01l-0.09-0.36c-2.26-8.37-3.59-16.95-4.01-25.74v-0.89c0-1.13,0.32-2.29,0.98-3.47l1.43-2.85
			l2.94-5.7c5.05-9.56,9.29-19.5,12.74-29.84c1.66-5.4,2.49-10.06,2.49-13.98c0-2.91-0.45-5.16-1.34-6.77
			c-0.89-1.6-2.38-2.41-4.45-2.41c-1.55,0-2.79,0.36-3.74,1.07c-1.19,0.83-2.32,1.93-3.38,3.29l-0.53,0.62
			c-4.27,5.11-7.61,10.85-10.02,17.23c-2.4,6.38-3.99,12.57-4.76,18.57c-0.77,6-1.16,11.46-1.16,16.39c0,3.61,0.26,7.69,0.78,12.25
			c-0.07,0.32-0.16,0.69-0.25,1.11l-2.14,8.28c-1.31,4.81-2.85,8.55-4.63,11.22c-1.01,1.42-2.08,2.14-3.21,2.14
			c-2.14-0.24-3.21-3.98-3.21-11.22c0-5.04,0.27-9.77,0.8-14.16l0.09-1.16c0-1.01-0.18-1.87-0.53-2.58
			c-0.42-0.95-1.46-1.57-3.12-1.87l-0.89-0.09c-2.31,0-3.8,1.19-4.45,3.56c-0.52,1.88-0.82,3.91-0.93,6.09l-2.37,8.7
			c-0.89,2.79-1.96,5.08-3.21,6.86c-1.01,1.25-1.93,1.87-2.76,1.87c-1.07-0.06-2.2-0.92-3.38-2.58c-1.31-2.26-1.96-5.55-1.96-9.89
			c0-4.57,0.8-10.63,2.4-18.17c0.12-0.59,0.18-1.4,0.18-2.41c0-3.09-1.49-4.66-4.45-4.72c-2.26,0-3.62,2.26-4.1,6.77l-0.18,0.62
			c-1.6-1.54-2.73-2.52-3.38-2.94c-1.25-0.77-2.52-1.16-3.83-1.16c-3.33,0-5.88,1.78-7.66,5.34c-1.6,2.9-2.4,6.69-2.4,11.36
			c-0.35,0.99-0.76,2.27-1.25,3.87l-2.14,6.68c-1.01,3.68-2.38,7.63-4.1,11.85c-2.14,5.04-3.92,7.57-5.34,7.57
			c-1.13,0-2.23-1.25-3.29-3.74c-1.55-3.38-2.32-7.24-2.32-11.58c0-3.32,0.12-6.38,0.36-9.17c0.36-4.39,0.53-8.58,0.53-12.56
			c0-4.04-0.36-8.11-1.07-12.2c-0.71-3.15-1.66-5.09-2.85-5.83c-1.19-0.74-2.26-1.11-3.21-1.11c-2.73,0-5.31,1.9-7.75,5.7
			c-1.96,3.09-3.71,7.57-5.25,13.45l-0.62,2.23c-1.19,3.92-2.17,7.81-2.94,11.67l-0.09,0.09l0.18-2.05c0.06-1.3,0.15-2.34,0.27-3.12
			v-0.18c0.41-4.69,0.62-8.19,0.62-10.51c0-2.73-1.04-4.1-3.12-4.1c-2.37,0-3.95,0.8-4.72,2.4c-0.53,1.13-0.86,2.46-0.98,4.01
			c-0.18,0.36-0.27,2.08-0.27,5.16c0,12.05,1.9,18.08,5.7,18.08c1.66,0,2.91-1.01,3.74-3.03c0.48-1.48,0.83-3.03,1.07-4.63
			c0.53-3.03,1.51-7.54,2.94-13.54l0.18-0.53c2.2-9.26,4.99-15.14,8.37-17.63c0.54-0.41,1.01-0.62,1.43-0.62
			c0.83,0,1.25,0.89,1.25,2.67c-0.06,3.26-0.42,6.68-1.07,10.24c-0.89,5.11-1.34,10.04-1.34,14.79c0,5.28,0.47,9.77,1.42,13.45
			c1.48,5.76,4.04,10.09,7.66,13c1.72,1.42,3.41,2.14,5.08,2.14c2.85,0,5.19-2.14,7.04-6.41c0.71-1.78,1.29-3.4,1.74-4.85
			c0.44-1.45,0.9-2.86,1.38-4.23c1.01-3.03,1.96-6,2.85-8.9l0.6-2.01c0.79,3.31,2.25,5.92,4.39,7.8c1.07,1.07,2.28,1.6,3.65,1.6
			c1.72,0,3.47-2.19,5.25-6.59l3.38-8.73c0.06,0,0.09,0.18,0.09,0.53c0,1.9,0.51,4.57,1.52,8.01c0.83,2.91,2.09,5.38,3.78,7.39
			c1.69,2.02,3.67,3.06,5.92,3.12h0.53c3.51-0.12,6.24-4.28,8.2-12.48c0.42,2.95,1.22,5.77,2.4,8.47c1.42,3.38,3.5,5.85,6.23,7.39
			c1.13,0.53,2.29,0.8,3.47,0.8c1.54,0,2.82-0.36,3.83-1.07c2.19-1.66,4.01-5.11,5.43-10.33c0.64-2.36,1.2-4.68,1.72-6.96
			c1.2,6.61,3.02,12.36,5.49,17.2c1.6,3.15,3.62,5.64,6.06,7.48c1.84,1.25,3.5,1.87,4.99,1.87c5.05,0,9.17-6.74,12.38-20.22
			c0.79-3.15,1.74-6.41,2.84-9.78c0.77,2.06,1.63,4.78,2.59,8.18c0.24,0.65,0.51,1.99,0.8,4.01l0.09,1.34c0,0.77-0.3,1.51-0.89,2.23
			v0.09c-4.63,5.64-6.95,10.6-6.95,14.87c0,2.91,0.98,4.63,2.94,5.17c0.83,0.24,1.6,0.36,2.31,0.36c3.74,0,6.83-2.79,9.26-8.37
			c1.96-4.63,2.94-9.32,2.94-14.07c0-0.95-0.06-1.88-0.18-2.81c-0.12-0.92-0.22-1.6-0.31-2.05c-0.09-0.45-0.49-1.42-0.53-1.72
			c-0.1-0.81,1.58,1.77,4.94,0.17c1.43-0.35,2.95-0.57,5.27-0.8c9.83-0.99,19.33-2.08,27.39-2.48c17.84-0.98,30.16,0.2,36.96,3.54
			c0.38,0.19,0.89,0.26,1.52,0.2c1.26-0.13,1.94-0.6,2.04-1.43C573.03,289.56,572.76,289.15,572.28,288.85z M406.73,278.58
			l-1.78,4.45c-2.2,6.23-3.86,9.35-4.99,9.35c-1.07,0-1.6-2.46-1.6-7.39c0-7.96,1.51-13.09,4.54-15.41c0.24-0.18,0.5-0.27,0.8-0.27
			c1.01,0,1.99,1.07,2.94,3.21c0.48,1.13,0.71,2.14,0.71,3.03C407.35,276.32,407.15,277.33,406.73,278.58z M457.67,267.36
			c-0.12-0.95-0.18-1.96-0.18-3.03c0.3-5.88,0.8-11.7,1.52-17.46c0.53-3.5,1.51-7.54,2.94-12.11c1.43-4.57,2.82-8.42,4.19-11.53
			c1.37-3.12,3.09-5.95,5.16-8.5c1.07-1.13,1.96-1.69,2.67-1.69c1.13,0,1.9,1.16,2.32,3.47c0.24,0.89,0.36,2.2,0.36,3.92
			c0,4.34-1.01,9.23-3.03,14.69c-2.44,6.53-5.14,12.77-8.11,18.7l-7.04,14.69c-0.06,0.3-0.3,0.66-0.71,1.07
			C457.76,268.81,457.73,268.07,457.67,267.36z M486.53,305.3c-0.12,1.54-0.34,3.12-0.67,4.72c-0.33,1.6-0.79,3.03-1.38,4.27
			c-0.83,1.42-1.51,2.14-2.05,2.14c-0.77,0-1.16-0.89-1.16-2.67c0-1.31,0.24-2.64,0.71-4.01l1.69-3.47c1.3-2.44,2.32-3.95,3.03-4.54
			C486.71,302.57,486.65,303.75,486.53,305.3z M487.69,273.68c-0.42,0-0.77-0.98-1.07-2.94c-0.18-1.48-0.27-2.76-0.27-3.83
			c0-1.07,0.09-1.93,0.27-2.58c0.36-1.25,0.86-1.87,1.51-1.87c0.71,0,1.2,0.48,1.47,1.42c0.27,0.95,0.4,1.75,0.4,2.4
			c0,1.01-0.18,2.2-0.53,3.56C488.75,272.4,488.16,273.68,487.69,273.68z"/>
	</g>
</g>
</svg>
